<svg width="400" height="400" viewBox="0 0 400 400" fill="none" xmlns="http://www.w3.org/2000/svg">
<path d="M200 400C310.457 400 400 310.457 400 200C400 89.5431 310.457 0 200 0C89.5431 0 0 89.5431 0 200C0 310.457 89.5431 400 200 400Z" fill="#E7E7E7"/>
<path d="M302 124.827C289.253 87.2266 246.213 120.72 246.213 120.72C215.52 146.667 184.64 134.773 184.64 134.773C169.387 129.44 161.6 98.9599 157.707 72.8533C140.747 78.3733 125.547 86.8533 112.48 97.5466C136.933 106.827 158.24 125.92 139.893 165.307C139.893 165.307 103.653 210.24 123.44 238.133C123.44 238.133 155.467 266.987 139.093 285.253C139.093 285.253 126.267 299.92 110.773 312.853C145.813 342.4 194.64 354.16 241.787 339.84C249.653 337.44 257.147 334.427 264.24 330.853C254.16 334.613 239.013 337.547 227.707 327.733C227.707 327.733 209.947 307.867 189.52 301.707C189.52 301.707 158.747 293.013 157.44 259.04C157.44 259.04 156.16 242.027 191.04 238.907C191.04 238.907 216.747 241.2 230.48 221.76C230.48 221.76 242.693 199.787 244.933 181.92C244.933 181.92 248.373 161.573 280.053 176.107C280.053 176.107 321.547 198.293 340.4 220C342.213 202.107 340.587 183.547 335.04 165.28C304.72 153.147 302 124.88 302 124.88V124.827Z" fill="#E9E9E9"/>
<path d="M244.96 181.867C242.72 199.733 230.506 221.707 230.506 221.707C216.773 241.147 191.066 238.853 191.066 238.853C156.186 242 157.466 258.987 157.466 258.987C158.746 292.96 189.546 301.653 189.546 301.653C209.973 307.813 227.733 327.68 227.733 327.68C239.04 337.493 254.213 334.56 264.266 330.8C307.413 309.067 335.68 266.72 340.426 219.92C321.573 198.213 280.08 176.027 280.08 176.027C248.4 161.493 244.96 181.84 244.96 181.84V181.867Z" fill="#BCBCBC"/>
<path d="M123.467 238.08C103.68 210.16 139.92 165.253 139.92 165.253C158.267 125.866 136.96 106.773 112.507 97.4932C69.92 132.346 50.2134 190.64 67.2 246.533C75.36 273.36 90.8267 295.946 110.8 312.773C126.293 299.866 139.12 285.173 139.12 285.173C155.52 266.906 123.467 238.053 123.467 238.053V238.08Z" fill="#BCBCBC"/>
<path d="M160.427 71.973C159.52 72.2397 158.613 72.533 157.707 72.8264C161.6 98.933 169.387 129.44 184.64 134.746C184.64 134.746 215.52 146.64 246.213 120.693C246.213 120.693 289.253 87.1997 302 124.8C302 124.8 304.693 153.066 335.04 165.2C312.587 91.2263 234.4 49.493 160.453 71.9464L160.427 71.973Z" fill="#BCBCBC"/>
<path d="M200.933 346.667C137.886 346.667 83.167 306.51 64.8221 246.771C42.0226 172.508 84.5376 93.7332 159.631 71.1518C165.298 69.4568 171.123 68.0748 176.948 67.084L179.452 66.6667L180.875 68.7528C226.79 135.402 239.231 227.632 217.855 342.834L217.301 345.754L214.323 346.041C209.869 346.458 205.361 346.667 200.907 346.667H200.933Z" fill="white"/>
<path d="M235.813 129.333C241.586 129.333 246.267 124.653 246.267 118.88C246.267 113.107 241.586 108.427 235.813 108.427C230.04 108.427 225.36 113.107 225.36 118.88C225.36 124.653 230.04 129.333 235.813 129.333Z" fill="#666666"/>
<path d="M175.573 139.787C181.346 139.787 186.026 135.106 186.026 129.333C186.026 123.56 181.346 118.88 175.573 118.88C169.8 118.88 165.12 123.56 165.12 129.333C165.12 135.106 169.8 139.787 175.573 139.787Z" fill="#666666"/>
<path d="M317.093 170.96C317.093 170.96 314.933 159.28 281.28 162.293L307.893 202.426C314.48 192.346 320.88 179.36 317.093 170.96Z" fill="#666666"/>
<path d="M115.546 288.933C115.546 288.933 132.24 322.373 160.906 305.28L273.6 238.053L232.16 177.36L116.506 247.2C116.506 247.2 98.3198 262.586 115.546 288.933Z" fill="#E1E1E1"/>
<path d="M275.227 237.093C275.227 237.093 292.693 224.586 296.72 217.253C296.72 217.253 302.373 210.853 307.893 202.4L281.28 162.266C280.987 162.293 280.693 162.32 280.4 162.346C280.4 162.346 251.547 168.613 235.173 175.546L232.133 177.386L273.573 238.08L275.2 237.093H275.227Z" fill="#F9F9F9"/>
</svg>
