<svg width="43" height="38" viewBox="0 0 43 38" fill="none" xmlns="http://www.w3.org/2000/svg">
<g clip-path="url(#clip0_702_940)">
<path d="M38.78 0.72C38.89 0.72 38.3 0.12 38.21 0C38.23 0.23 38.93 0.88 38.78 0.72Z" fill="#EA5849"/>
<path d="M39.0098 3.08995L38.7998 2.81995L39.2098 3.57995L39.0098 3.08995Z" fill="#EA5849"/>
<path d="M38.02 3.97999C39.08 4.94999 38.22 3.47999 38.74 3.69999L38.99 3.90999L38.29 2.98999C38.2 3.31999 38.44 4.13999 38.02 3.97999Z" fill="#EA5849"/>
<path d="M35.4102 2.18C35.8202 2.56 35.6202 2.64 35.6502 2.2C35.6002 2.16 35.5702 2.14 35.5302 2.12C35.5102 2.15 35.4802 2.17 35.4102 2.19V2.18Z" fill="#EA5849"/>
<path d="M35.5299 2.11995C35.6099 1.99995 35.1499 1.83995 35.5299 2.11995Z" fill="#EA5849"/>
<path d="M35.2698 2.79004L35.0698 2.30004C34.8198 2.08004 34.6498 2.14004 34.5298 1.92004C34.5698 2.25004 34.8198 2.46004 35.2698 2.79004Z" fill="#EA5849"/>
<path d="M35.8399 3.68004L35.7699 3.46004C35.6599 3.37004 35.6099 3.35004 35.8399 3.68004Z" fill="#EA5849"/>
<path d="M35.6201 2.98999L35.7701 3.44999C35.9501 3.59999 36.2601 3.93999 35.7301 3.26999C36.0001 3.58999 35.7601 3.26999 35.6201 2.98999Z" fill="#EA5849"/>
<path d="M35.8501 3.08004C36.1401 3.24004 36.3701 3.29004 36.5601 3.78004C36.6901 3.40004 35.9701 2.69004 35.8501 3.08004Z" fill="#EA5849"/>
<path d="M38.96 5.12002L39.34 5.33002L39.11 4.90002C39.23 5.12002 38.65 4.80002 38.96 5.12002Z" fill="#EA5849"/>
<path d="M33.9102 3.02002C34.1102 3.25002 34.5002 3.58002 34.7802 3.85002L34.6502 3.50002C34.4602 3.39002 34.2302 3.34002 33.9202 3.02002H33.9102Z" fill="#EA5849"/>
<path d="M34.7798 3.85999L34.9798 4.37999C35.1598 4.29999 35.0098 4.09999 34.7798 3.85999Z" fill="#EA5849"/>
<path d="M36.8901 4.86996L36.3901 3.82996L36.8501 4.91996L36.8901 4.86996Z" fill="#EA5849"/>
<path d="M33.3099 3.52005L32.9199 2.93005L33.4899 3.85005L33.3099 3.52005Z" fill="#EA5849"/>
<path d="M33.0101 3.97C32.6801 3.48 32.2601 3.32 32.0801 3C32.0501 3.17 32.3001 3.62 32.5201 4.03C32.4401 3.77 32.5701 3.73 33.0101 3.98V3.97Z" fill="#EA5849"/>
<path d="M32.83 4.63002C32.78 4.49002 32.65 4.26002 32.52 4.02002C32.57 4.16002 32.65 4.34002 32.83 4.63002Z" fill="#EA5849"/>
<path d="M34.6199 4.49997C34.4799 4.37997 34.1399 4.03997 33.9199 3.96997L34.5599 4.54997C34.5599 4.54997 34.5999 4.51997 34.6299 4.49997H34.6199Z" fill="#EA5849"/>
<path d="M34.5701 4.57005L34.5501 4.55005C34.4701 4.60005 34.4201 4.62005 34.3901 4.63005C34.4101 4.63005 34.4701 4.60005 34.5701 4.57005Z" fill="#EA5849"/>
<path d="M34.6401 4.48999H34.6201C34.6801 4.55999 34.7001 4.57999 34.6401 4.48999Z" fill="#EA5849"/>
<path d="M35.9702 4.66003C36.2002 5.09003 36.3602 5.64003 37.0402 6.01003C36.7102 5.52003 36.3302 5.31003 35.9702 4.66003Z" fill="#EA5849"/>
<path d="M35.4302 5.20999H35.7202C35.5602 5.03999 35.3102 4.82999 35.2002 4.60999L35.4302 5.20999Z" fill="#EA5849"/>
<path d="M35.5401 5.48996L35.4301 5.20996L35.3301 5.21996L35.5401 5.48996Z" fill="#EA5849"/>
<path d="M33.6499 4.95997C33.8299 5.29997 33.7799 5.38997 33.7299 5.50997C33.9399 5.54997 34.0899 5.52997 34.1799 5.44997C34.0099 5.23997 33.7299 4.84997 33.6499 4.95997Z" fill="#EA5849"/>
<path d="M34.1499 4.82996L34.1699 4.87996C34.2299 4.91996 34.2499 4.92996 34.1499 4.82996Z" fill="#EA5849"/>
<path d="M32.8799 6.28002C32.8799 6.28002 32.9599 6.35002 32.9999 6.38002L32.8999 6.27002H32.8799V6.28002Z" fill="#EA5849"/>
<path d="M34.3002 5.55995C34.4802 5.61995 34.3802 5.42995 34.2402 5.19995C34.2402 5.30995 34.2302 5.39995 34.1802 5.45995C34.2602 5.54995 34.3102 5.60995 34.3002 5.55995Z" fill="#EA5849"/>
<path d="M32.87 5.13998C33.03 5.23998 33.17 5.30998 33.31 5.37998C33.09 5.20998 32.74 4.96998 32.87 5.13998Z" fill="#EA5849"/>
<path d="M33.9802 4.72005C33.9802 4.72005 33.9702 4.69005 33.9602 4.68005C33.8102 4.57005 33.8802 4.63005 33.9802 4.72005Z" fill="#EA5849"/>
<path d="M33.98 4.71997C34.03 4.83997 34.14 5.01997 34.24 5.18997C34.24 5.09997 34.21 4.99997 34.16 4.86997C34.11 4.82997 34.04 4.76997 33.98 4.71997Z" fill="#EA5849"/>
<path d="M36.33 10.57C35.81 9.97001 35.49 9.27001 36.22 9.75001C35.97 9.17001 34.11 7.34001 33 6.39001C33.23 6.65001 33.44 6.88001 33.6 7.38001C33.95 7.65001 34.64 7.80001 34.99 8.46001C35.06 8.95001 34.63 8.41001 34.24 8.20001C34.99 8.85001 34.94 9.50001 35.97 10.53L35.81 9.98001C35.97 10.14 36.14 10.47 36.33 10.58V10.57Z" fill="#EA5849"/>
<path d="M33.3602 6.16995V6.03995C33.1902 6.00995 32.9202 5.81995 32.4102 5.44995C32.5602 5.82995 32.7402 6.06995 32.9102 6.26995L33.3102 6.05995L33.3702 6.16995H33.3602Z" fill="#EA5849"/>
<path d="M33.6498 5.77001C34.1798 6.45001 34.2698 6.87001 34.9998 7.47001C35.1498 7.25001 34.6498 6.82001 34.5098 6.44001C34.3498 6.88001 34.2798 6.00001 33.7198 5.85001C33.6798 5.69001 33.7098 5.60001 33.7298 5.53001C33.5998 5.50001 33.4598 5.46001 33.2998 5.39001L33.3398 5.42001C33.4298 5.49001 33.4698 5.53001 33.4198 5.50001V5.52001C33.4998 5.61001 33.5598 5.69001 33.6298 5.77001C33.4198 5.72001 33.4598 5.62001 33.4198 5.52001C33.3898 5.49001 33.3698 5.46001 33.3398 5.42001V6.04001C33.4898 6.07001 33.5498 5.97001 33.6298 5.77001H33.6498Z" fill="#EA5849"/>
<path d="M38.1202 7.53001C38.0602 7.48001 38.0202 7.44001 37.9702 7.39001C38.0202 7.49001 38.0602 7.55001 38.1202 7.53001Z" fill="#EA5849"/>
<path d="M37.6401 7.27C37.5801 7.16 37.3701 6.89 37.5001 6.89C37.7401 7.02 37.7801 7.19 37.9701 7.4C37.8601 7.19 37.7101 6.8 37.2901 6.62L37.3501 6.73C37.0301 6.63 36.1401 5.98 36.0801 5.87C36.6401 6.41 37.0501 6.79 37.6401 7.27Z" fill="#EA5849"/>
<path d="M35.7798 6.68994L35.8098 7.23994L36.4498 7.66994L36.1398 7.34994C36.4098 7.34994 35.9998 6.96994 35.7898 6.69994L35.7798 6.68994Z" fill="#EA5849"/>
<path d="M32.56 6.00004L31.98 5.29004L32.7 6.38004L32.56 6.00004Z" fill="#EA5849"/>
<path d="M32.2998 6.38004L31.7798 5.79004L32.0098 6.22004L32.2998 6.38004Z" fill="#EA5849"/>
<path d="M18.6801 32.17L18.6401 32.51C18.6701 32.39 18.6801 32.28 18.6801 32.17Z" fill="#EA5849"/>
<path d="M19.5902 31.4L19.4302 31.02C19.4902 31.26 19.5502 31.42 19.5902 31.4Z" fill="#EA5849"/>
<path d="M24.13 13.98C23.52 13.54 22.62 12.8 23.24 13.45L23.86 14.06C23.83 13.87 23.96 13.89 24.13 13.98Z" fill="#EA5849"/>
<path d="M21.99 22.9599C22.06 23.0099 22.13 23.0699 22.2 23.1199C22.03 22.8799 21.86 22.6499 21.71 22.4399C21.8 22.5999 21.89 22.7699 21.99 22.9599Z" fill="#EA5849"/>
<path d="M24.3398 25.68L23.8198 25.4C23.9798 25.51 24.1598 25.61 24.3398 25.68Z" fill="#EA5849"/>
<path d="M13.8402 36.29L13.7002 37.27C13.9302 37.22 13.8302 36.76 13.8402 36.29Z" fill="#EA5849"/>
<path d="M29.0802 9.76001C28.7602 9.60001 28.5802 9.56001 28.4902 9.59001C28.9402 9.85001 29.5402 10.32 29.0802 9.76001Z" fill="#EA5849"/>
<path d="M15.1499 22.91C15.1999 23.08 15.2599 23.26 15.3399 23.45C15.2999 23.28 15.2399 23.11 15.1499 22.91Z" fill="#EA5849"/>
<path d="M28.2201 9.84994C28.3001 9.89994 28.3401 9.91994 28.4101 9.94994C28.3801 9.77994 28.3701 9.62994 28.4901 9.58994C28.1501 9.38994 27.9001 9.30994 28.2201 9.83994V9.84994Z" fill="#EA5849"/>
<path d="M0.66982 22.42C0.66982 22.42 0.70982 22.37 0.73982 22.34C0.63982 22.39 0.63982 22.41 0.66982 22.42Z" fill="#EA5849"/>
<path d="M6.52002 14.61C6.59002 14.62 6.61002 14.68 6.65002 14.73C6.69002 14.68 6.66002 14.64 6.52002 14.61Z" fill="#EA5849"/>
<path d="M30.7 7.34C30.73 7.23 30.65 7.26 30.7 7.34Z" fill="#EA5849"/>
<path d="M33.3599 9.55005C33.4099 9.64005 33.4799 9.74005 33.6199 9.89005C33.4799 9.73005 33.4099 9.62005 33.3599 9.55005Z" fill="#EA5849"/>
<path d="M31.1602 14.48C31.3002 14.59 31.2702 14.57 31.1602 14.48Z" fill="#EA5849"/>
<path d="M31.0701 7.53004C30.9701 7.48004 30.8801 7.44004 30.8101 7.42004C30.8701 7.46004 30.9501 7.49004 31.0701 7.53004Z" fill="#EA5849"/>
<path d="M30.7801 7.23997C30.8301 7.23997 30.8601 7.23997 30.9001 7.23997C30.8101 7.12997 30.7401 7.06997 30.7801 7.23997Z" fill="#EA5849"/>
<path d="M30.6299 7.45996C30.6299 7.45996 30.7299 7.40996 30.8099 7.41996C30.7599 7.38996 30.7199 7.35996 30.6999 7.32996C30.6899 7.35996 30.6699 7.39996 30.6299 7.45996Z" fill="#EA5849"/>
<path d="M7.65017 29.08C7.65017 29.08 7.67017 29.03 7.68017 28.98C7.39017 29.19 7.46017 29.19 7.65017 29.08Z" fill="#EA5849"/>
<path d="M28.3601 22.32C28.3601 22.32 28.3501 22.29 28.3401 22.28H28.3101L28.3601 22.32Z" fill="#EA5849"/>
<path d="M28.54 23.03C27.92 22.13 28.07 22.18 28.31 22.27L26.54 20.5L28.55 23.03H28.54Z" fill="#EA5849"/>
<path d="M16.5802 34.26C16.7402 34.49 16.9002 34.7 17.0702 34.92C16.9802 36.63 16.5302 36.32 17.1102 37.35C16.8502 35.8 17.1602 35.52 17.4602 35.2C17.7702 34.88 18.0702 34.52 17.6602 33.06L18.0402 33.49C17.9702 33.51 18.0202 33.69 17.9502 33.72C18.7802 34.72 17.5802 31.39 18.1502 31.4C18.3802 31.47 18.6602 31.75 18.6702 32.18L18.7602 31.19C18.8802 31.15 19.0602 31.62 18.9302 31.67L19.3902 30.96L19.4202 31.04C19.3002 30.57 19.1502 29.81 19.0902 29.49C19.4102 29.73 19.1702 29.81 19.3702 30.09L19.3202 29.25C19.8002 29.76 19.9102 30.59 19.6502 30.69C20.4602 31.79 20.4602 31.56 20.4102 31.18C20.3702 30.8 20.2602 30.28 21.0202 30.66L20.9002 31.24C21.9402 32.37 21.9002 31.66 22.8602 32.08C22.6602 31.92 22.1002 31.61 21.6202 31.2C21.1302 30.79 20.7202 30.29 20.6902 29.86C20.9002 29.95 21.0902 29.9 20.9402 29.3C21.5202 30.08 21.5602 29.72 21.7502 29.47L22.5502 30.48C22.5802 29.95 22.1402 29.48 21.9002 28.91C22.0902 28.82 22.3202 28.99 22.6002 29.23C22.8802 29.47 23.2102 29.79 23.5102 30.08C23.9202 29.98 22.2502 29.08 22.4102 28.61C22.9602 28.77 22.7702 28.24 22.5202 27.43C22.9702 27.61 23.0202 28.03 23.3202 28.25L22.7702 27.37C22.8202 27.36 23.0202 27.6 23.1202 27.72C22.9702 27.32 22.2702 26.77 22.2202 26.34C21.3202 25.26 23.9902 27.51 23.1302 26.13C23.4302 26.35 23.6302 26.73 23.9802 27.08C23.5802 26.02 23.7302 26.27 23.0302 25L23.8102 25.42C23.0002 24.86 22.4402 23.83 21.9902 22.98C21.6202 22.69 21.3002 22.43 21.1302 22.32L20.9502 21.55C21.1302 21.67 21.3902 22.02 21.7102 22.46C21.6602 22.36 21.6002 22.27 21.5602 22.19C21.9802 22.45 22.4302 23.04 22.8402 23.63C22.6402 23.47 22.4202 23.31 22.2002 23.14C22.6502 23.78 23.1702 24.47 23.6902 25.01C23.6102 24.88 23.5602 24.76 23.5502 24.67C23.6702 24.84 23.7902 24.99 23.8802 25.08C23.9802 25.17 23.8202 24.93 23.6502 24.65L24.6802 25.64L24.3102 25.21L25.2902 25.53C24.5902 24.23 23.3902 22.45 23.4202 21.63C24.0202 22.5 24.5502 22.91 25.3802 23.83C24.3802 22.97 25.4302 24.54 25.0302 24.55C25.2402 24.55 25.6102 25.01 25.7202 25.18L25.3102 23.94C25.9902 24.7 25.9102 24.42 26.2902 24.64C24.8602 23.23 25.6802 23.39 25.4302 22.79C25.8902 23.28 26.3202 23.82 26.0202 23.88C27.2502 24.8 24.7102 21.89 25.7902 22.64C25.7502 22.7 25.6602 22.64 25.8702 22.91C25.5802 22.37 26.1702 22.47 26.5002 22.96L26.4602 23.01C26.9402 22.9 27.4302 22.14 26.3302 20.84C26.4802 21 27.6702 22.39 27.8902 22.66L24.5902 17.92C25.5302 19.04 28.0702 21.44 28.3602 22.28C28.5802 22.36 28.8302 22.46 28.6402 21.93C28.4502 21.82 27.0902 20.49 27.0702 20.33C28.3602 21.35 27.7902 20.85 28.9602 21.66C28.6702 21.5 27.2102 19.73 27.3802 19.67C27.5902 19.94 28.9202 21.33 29.0302 21.55L27.8102 19.61C28.0102 19.98 29.0802 21.03 29.5802 21.44C29.2502 21.14 29.8702 21.23 29.8002 20.99L29.3202 20.72C29.8902 20.66 27.5202 18.08 27.9402 17.86C28.2102 18.24 29.7702 20.06 30.1302 20.11C29.4302 19.19 26.7402 15.7 26.4402 14.77L26.9402 15.2L26.6602 14.44C27.6902 15.85 29.7502 18.91 30.4902 20.16C30.9702 20.43 31.0502 20.7 31.2002 20.48C31.6802 20.87 31.7302 21.27 31.7002 21.34L32.4102 21.23C31.4802 20.26 31.8402 19.92 31.0702 19.11L31.5302 20.58C30.6002 19.61 29.2302 17.51 29.7102 17.4C30.1502 17.72 31.2702 19.22 31.5802 19.55C31.3102 19.17 31.2802 18.62 31.5302 18.84L31.8802 19.49C32.4002 19.7 30.9602 17.91 32.0402 18.67C32.1702 18.67 33.4302 19.75 32.9002 19.15C31.7502 18.13 28.5202 14.65 27.8202 13.72C27.9202 13.77 29.1902 14.45 29.7902 14.93C30.7202 15.71 31.5502 17.21 32.3502 17.88C32.1102 17.61 31.8702 17.21 31.8002 17.08C32.0902 17.24 32.5402 17.95 32.5902 17.67C31.7002 16.64 33.0102 17.45 31.8902 16.75C31.7902 16.31 32.2502 16.8 32.4002 16.58C31.7402 15.99 30.5502 14.21 30.4502 13.78C30.6702 14.04 31.0202 14.34 31.1702 14.48C31.5902 14.27 32.1802 14.56 32.5002 14.28C32.7502 14.5 33.1702 14.65 33.5002 15.15C33.3802 14.93 33.1102 14.55 33.1802 14.44C34.1602 15.14 33.0902 14.77 34.1902 15.69C33.6702 15.09 33.7002 14.66 33.5002 14.17C32.6302 13.31 33.0302 14.29 33.2202 14.78C32.0802 13.54 31.1202 12.01 30.9202 11.14C30.9002 10.59 31.7702 11.84 31.6502 11.62C32.3302 11.39 30.0702 9.07003 31.3002 9.60003C32.1902 10.25 32.7502 11.17 33.3102 11.71C33.3702 12.2 32.5302 11.5 32.4102 11.66L32.9302 11.87C33.1002 12.19 33.1502 12.52 32.8602 12.36C33.6502 12.95 33.8002 11.75 34.7802 12.06C34.6002 11.73 34.4702 11.35 34.1202 11.08L34.1002 11.3C33.4102 10.76 33.5102 10.21 33.0902 10.05C32.8402 9.45003 32.3702 8.58003 32.9202 8.74003L33.7902 9.61003C33.5402 9.35003 33.1502 9.20003 33.3402 9.54003C33.0702 9.05003 34.8002 10.45 33.8202 9.17003L33.0902 8.69003C32.8302 8.09003 32.1502 6.95003 32.6102 7.05003C31.7002 6.24003 32.6602 7.19003 31.5602 6.28003C32.8702 7.47003 31.0002 6.69003 32.4502 7.88003C31.2002 6.80003 31.7302 7.59003 30.5902 6.73003C30.8702 7.02003 31.1802 7.24003 30.8802 7.24003C30.9502 7.33003 31.0402 7.46003 31.0802 7.54003C31.0702 7.54003 31.0602 7.54003 31.0502 7.53003L31.0902 7.56003C31.1202 7.61003 31.1302 7.62003 31.1002 7.56003C31.2602 7.65003 31.4302 7.78003 31.6002 7.94003C32.1402 8.70003 31.8602 8.92003 32.1002 9.36003C31.8702 9.31003 31.8302 8.98003 31.4802 8.71003L31.8302 9.36003C31.2102 8.71003 30.5602 8.50003 30.4402 7.90003L30.2002 8.06003C29.7402 7.80003 29.4302 7.81003 29.5802 8.18003C29.3502 8.13003 30.0002 9.14003 29.6102 8.54003L29.6602 9.25003L29.5102 9.09003C29.1102 9.30003 29.8502 10.8 28.3802 9.94003C28.4202 10.21 28.5002 10.51 28.1402 10.49L27.5802 9.95003C27.6202 10.28 26.6302 9.76003 27.1202 10.41C25.5602 9.01003 26.1302 10.7 25.6402 10.65L26.3202 11.41C26.1102 11.52 26.1402 11.88 26.2102 12.38L26.8302 13.03C27.1502 13.74 25.9302 12.99 25.7102 13.32C25.5002 13.05 25.6302 13.05 25.8202 13.15C24.1102 11.97 26.0902 14.9 24.7802 14.09C24.9202 14.4 24.7902 14.37 24.5902 14.25C24.5902 14.25 24.5902 14.22 24.5802 14.2C24.5602 14.2 24.5502 14.2 24.5402 14.22C24.4002 14.14 24.2502 14.04 24.1102 13.97C24.2902 14.1 24.4402 14.21 24.5202 14.24C24.4702 14.31 24.4602 14.47 24.5202 14.72L23.8302 14.04C23.8302 14.04 23.8302 14.06 23.8302 14.08C23.5002 13.9 24.0702 14.48 24.6002 14.97C24.6602 15.13 24.7502 15.31 24.8702 15.51C23.7502 14.43 24.9902 16.11 23.7702 14.97C24.2602 15.62 23.7302 15.83 24.8402 17.13C24.6902 16.97 24.5902 16.92 24.6302 16.86C24.4002 16.81 24.1702 16.76 24.4102 17.19L23.5402 16.33L24.4402 17.74C23.8002 17.31 23.4602 17.04 22.9502 16.23C23.6102 17.59 23.0602 16.87 23.7702 18.17L23.2502 17.57C23.1702 17.68 23.7402 18.6 23.2402 18.17C22.0102 17.26 22.0402 18.99 20.5502 18.46C22.2302 20.08 19.5902 17.92 20.7902 19.28C20.3902 18.9 20.1002 18.74 19.8602 18.31C19.9502 18.97 18.8502 18.05 19.6802 19.35C19.2702 18.97 19.1902 18.7 18.9402 18.48C19.0002 18.59 19.1702 18.92 18.9202 18.7C18.6702 18.48 18.6502 18.32 18.5302 18.1C18.3102 18.43 19.4202 19.71 20.4802 20.91C19.8302 20.49 19.8202 20.63 20.4302 21.5C20.0302 21.16 19.5702 20.84 19.6302 20.53C19.4802 20.57 18.5002 20.53 19.3502 21.48C19.1002 21.27 19.1502 21.54 19.2202 21.67C18.9402 21.82 18.8502 21.75 18.7102 22.04L18.9102 22.14C19.8602 23.36 18.9602 22.56 18.9102 22.86L18.8102 22.74C17.6502 22.29 18.9902 23.29 17.7302 22.73L18.4002 23.42C19.7602 24.98 17.2202 22.85 17.5202 23.64L17.9702 23.97C18.1602 24.28 17.5602 23.88 16.9602 23.31C16.3502 22.75 15.7102 22.06 15.6102 21.98C15.4902 21.85 15.4402 21.74 15.3702 21.63C14.4902 20.78 16.1602 22.61 16.2202 22.95C15.7902 22.42 15.1902 21.56 15.0602 21.5C14.8902 21.29 15.1802 21.76 15.3802 22.2C15.5802 22.63 15.6802 23.03 15.3102 22.49C15.5902 22.94 15.8902 23.37 16.0202 23.79C16.0202 23.92 15.7002 23.54 15.5002 23.3C15.3002 23.06 15.2002 22.97 15.5002 23.82C15.4302 23.69 15.3702 23.56 15.3102 23.44C15.4202 23.92 15.3602 24.35 15.6002 25.34C14.9802 23.66 15.0402 24.15 15.0402 24.74C15.0402 25.32 15.0202 25.98 14.6702 24.23L14.4902 24.62L14.4402 24.24C14.2802 24.11 14.3502 25.04 14.3702 26.02C14.3002 25.8 14.3002 25.42 14.2802 25.21C13.9802 24.65 14.0502 24.76 13.8702 26.99L13.8302 25.69C13.8102 26.1 13.7102 25.66 13.6302 25.31C13.5402 24.96 13.4802 24.69 13.2902 25.56C13.3102 25.4 13.3302 25.12 13.3702 24.91C13.1602 25.81 13.0602 24.73 13.0802 24.11C13.0802 23.48 13.0802 23.34 12.5402 25.7C12.4102 26.04 12.2802 26.36 12.1302 26.68C12.2802 27.33 11.6302 28.68 11.5502 29.59C11.3502 29.7 11.6002 27.83 11.7902 27.75L11.7502 28.01C12.3702 25.64 11.6802 26.8 12.1402 25.23C11.8602 24.99 11.8302 24.11 11.8202 23.54C11.8202 23.28 11.8002 23.07 11.7402 22.95L10.9302 24.36L10.8602 24.12C11.0302 23.77 11.5102 23.04 11.5402 23.18C12.0002 22.39 11.0202 23.65 10.8102 23.91C11.0402 23.19 11.9202 22.5 11.8902 22.4L11.7802 22.43L11.6802 22.59C11.2702 23.05 10.8602 23.58 10.8102 23.38C10.9502 23.06 11.3802 22.61 11.4002 22.54C11.4702 22.46 11.5002 22.41 11.4002 22.47V22.23C11.1302 22.54 10.8702 22.85 10.6202 23.17C10.1602 23.52 10.5302 22.93 9.67018 24C10.3302 23.16 10.3402 22.87 10.2302 22.68C10.1202 22.5 9.87018 22.42 10.1002 22.2C9.34018 22.57 9.19018 22.3 9.12018 22.01C8.95018 22.2 7.88018 22.93 7.87018 22.62C10.2002 21.29 8.61018 21.61 10.1602 20.43C9.16018 21.25 9.52018 19.98 8.11018 21.16C8.19018 20.87 8.96018 20.63 9.42018 20.18C8.27018 20.27 9.45018 18.9 8.85018 18.54C8.54018 18.7 8.12018 19.06 7.60018 19.19L8.98018 18.05C8.77018 18.03 7.14018 18.93 8.11018 18.15C7.86018 18.32 7.50018 18.57 7.36018 18.56C8.30018 16.71 4.94018 16.96 7.31018 14.46C6.76018 14.9 6.66018 14.83 6.58018 14.73C6.47018 14.87 5.79018 15.1 5.37018 15.32L6.35018 14.29C5.11018 14.76 6.04018 13.83 4.87018 14.29L5.15018 14.35C3.70018 14.76 2.26018 16.01 0.500176 16.78C2.15018 16.3 -1.47982 18.48 0.900176 17.84C0.590176 18.1 0.310176 18.03 -0.0698242 18.27C0.720176 18.02 0.930176 18.06 0.710176 18.45L0.520176 18.51C1.01018 19.05 0.410176 19.68 0.300176 20.63L1.11018 20.14C1.07018 20.35 0.830176 20.52 0.650176 20.7C2.01018 20.21 0.500176 20.24 1.99018 19.67C0.380176 20.76 2.51018 20.73 0.650176 21.9C0.760176 22.14 1.58018 21.31 1.69018 21.55L1.20018 21.89L1.90018 21.58C1.87018 21.79 1.26018 22.22 0.830176 22.47C0.860176 22.4 0.650176 22.43 0.590176 22.41C0.0901757 22.95 1.11018 22.85 0.950176 23.03L1.14018 22.63C1.97018 22.99 1.74018 24.14 3.13018 24.12L3.49018 23.85C4.47018 23.87 3.28018 24.46 3.91018 24.76L3.81018 24.8C4.25018 24.66 4.52018 24.68 4.56018 24.83C4.04018 24.98 3.84018 25.6 3.25018 25.75C4.31018 25.77 3.98018 25.6 5.61018 25.07L5.05018 25.57C5.69018 25.33 5.99018 25.14 6.32018 25.3C5.65018 25.44 5.54018 26.18 4.68018 26.39C4.26018 27.23 4.78018 27.27 5.15018 27.26C5.53018 27.26 5.79018 27.24 5.05018 28.25C6.74018 27.09 5.49018 26.88 5.93018 26.74C6.35018 26.17 7.23018 25.92 7.19018 26.23C7.27018 26.42 5.54018 28.47 5.99018 29.03C5.96018 28.97 5.85018 29.09 5.82018 29.03C5.64018 29.67 6.57018 28.86 6.22018 29.82C7.09018 28.91 6.42018 30.22 7.41018 28.88L6.85018 28.73C7.33018 28.68 8.58018 27.27 8.32018 28.44C8.12018 28.7 7.79018 28.96 7.59018 29.09C7.41018 29.63 7.94018 29.04 7.77018 29.61C6.85018 31.03 7.15018 29.37 6.19018 30.09C5.90018 30.83 7.31018 29.69 6.19018 31.04C6.92018 30.2 6.97018 30.38 7.02018 30.66C7.06018 30.93 7.10018 31.3 7.68018 30.69L7.16018 31.57C7.29018 31.49 7.61018 31.18 7.68018 31.31C7.42018 31.65 7.16018 31.98 6.89018 32.3C7.21018 32.03 7.27018 32.2 7.27018 32.51C7.27018 32.98 7.16018 33.7 7.48018 33.53C6.92018 32.99 7.90018 32.25 8.02018 31.33C9.18018 30.67 7.20018 34.22 8.20018 34.56C8.03018 34.59 8.05018 33.56 8.39018 33.27C8.44018 33.62 8.48018 34.21 8.39018 34.79C8.99018 34.97 8.67018 33.69 9.11018 33.23C8.86018 34.59 9.52018 32.92 9.82018 32.69L9.51018 33.72C9.87018 34.81 10.2602 31.71 10.4802 32.85L9.92018 34.15C10.0402 34.09 10.1502 34.01 10.2602 33.94L9.92018 35.08C10.4202 34.38 10.4402 34.66 10.6602 35.14C10.7402 34.39 11.0702 33.33 11.2802 33.46C11.3202 34.15 11.0202 34.36 11.3702 34.4C11.2002 34.97 10.9702 35.72 10.9902 34.71C10.9202 35.03 10.8002 35.29 10.7202 35.61C10.7902 36.4 11.1702 35.99 11.3102 36.03C11.2602 35.97 11.2102 35.9 11.2002 35.74L11.9502 34.6C12.0002 34.99 11.8902 35.26 11.7802 35.52C11.9202 35.45 12.0602 35.03 12.2702 34.96C12.1402 35.73 12.0702 36.55 11.7302 36.87C11.9902 36.62 12.2602 36.36 12.4902 36.06C12.5102 36.4 12.7402 36.99 12.6402 37.29C12.9902 37.77 13.4602 35.61 13.8302 36.13C13.8502 35.96 13.8902 35.79 13.9702 35.65C14.3202 35.71 14.7502 36.69 15.1302 35.28C15.2602 35.77 15.4102 36.26 15.5602 36.75C15.9002 36.21 15.0002 34.92 15.5202 34.02C15.8602 33.27 15.8602 35.29 16.0802 35.65C16.2202 34.72 16.2402 32.87 16.8902 33.87C16.8202 34.26 16.6702 34.1 16.5702 34.3L16.5802 34.26ZM20.6702 29.84C20.7102 30.08 20.8802 30.77 20.5102 30.34C20.0002 29.31 20.3502 29.7 20.6702 29.84ZM23.6402 23.97C23.8202 24.24 23.6502 24.18 23.3402 23.97C23.3402 23.87 23.4202 23.84 23.6402 23.97ZM30.4502 8.63003C30.4502 8.63003 30.4702 8.65003 30.4802 8.67003C30.1102 8.50003 30.2502 8.57003 30.4502 8.63003ZM30.9702 8.72003C30.9002 8.60003 30.8102 8.50003 30.7102 8.41003C30.8602 8.61003 30.8202 8.67003 30.7102 8.67003C30.9002 8.84003 31.0502 8.94003 30.9702 8.72003ZM11.2002 22.81L11.0502 23.04C10.8202 23.2 11.0002 23.02 11.2002 22.81Z" fill="#EA5849"/>
<path d="M24.0699 25.37C23.9499 25.26 23.8199 25.13 23.6899 25C23.7799 25.14 23.9099 25.28 24.0699 25.37Z" fill="#EA5849"/>
<path d="M13.8601 36.11C13.8601 36.11 13.8601 36.11 13.8501 36.11V36.3L13.8601 36.12V36.11Z" fill="#EA5849"/>
<path d="M32.7698 18.16C32.6298 18.1 32.4798 18 32.3398 17.88C32.4998 18.06 32.6498 18.18 32.7698 18.16Z" fill="#EA5849"/>
<path d="M31.14 6.33997L31.16 6.66997C31.2 6.56997 31.37 6.69997 31.51 6.77997C31.35 6.61997 31.1 6.39997 31.14 6.34997V6.33997Z" fill="#EA5849"/>
<path d="M36.51 9.52003C36.45 9.41003 36.55 9.47003 36.49 9.36003L36.18 9.03003C36.1 9.14003 36.28 9.47003 36.51 9.52003Z" fill="#EA5849"/>
<path d="M33.4399 8.57999C33.9999 9.16999 33.9099 8.87999 33.9199 8.66999C33.9199 8.66999 33.9199 8.68999 33.8999 8.68999C33.1699 7.81999 33.2999 8.20999 33.4399 8.58999V8.57999Z" fill="#EA5849"/>
<path d="M33.9302 8.61996C33.9302 8.55996 33.9602 8.50996 34.0202 8.50996C33.7302 8.15996 33.9202 8.47996 33.9302 8.61996Z" fill="#EA5849"/>
<path d="M30.9098 8.03995C31.0998 8.14995 30.2398 7.24995 30.4898 7.45995C29.8498 6.64995 30.9898 8.68995 30.9098 8.03995Z" fill="#EA5849"/>
<path d="M35.3401 10.47L34.6201 9.77002L35.1101 10.42L35.3401 10.47Z" fill="#EA5849"/>
<path d="M33.9898 10.71L34.3498 10.76C34.2298 10.64 34.1898 10.55 34.1698 10.47C34.0398 10.54 33.7898 10.5 33.9898 10.72V10.71Z" fill="#EA5849"/>
<path d="M34.1602 10.46C34.2302 10.42 34.2702 10.36 34.1902 10.21C34.1702 10.25 34.1302 10.33 34.1602 10.46Z" fill="#EA5849"/>
<path d="M35.2999 10.91L35.1099 10.8L34.9399 10.86L35.2999 10.91Z" fill="#EA5849"/>
<path d="M32.0098 12.26V12.64C32.2298 12.91 32.4198 13.02 32.3998 12.85C32.2798 12.63 32.2598 12.47 32.0098 12.25V12.26Z" fill="#EA5849"/>
<path d="M34.4301 13.76C34.2401 13.65 34.0801 13.49 33.8301 13.27L34.6601 14.19L34.4201 13.75L34.4301 13.76Z" fill="#EA5849"/>
<path d="M34.0698 14.48C34.2798 14.75 34.4598 15.46 34.6498 15.18C34.4398 14.91 34.4298 14.53 34.0698 14.48Z" fill="#EA5849"/>
<path d="M30.1801 15.92L30.2201 15.86L28.8301 14.36L30.1801 15.92Z" fill="#EA5849"/>
<path d="M30.9701 21.8C31.5201 21.96 30.1701 20.82 30.7901 21.09C30.5201 20.69 30.2901 20.87 30.0601 20.52C30.2701 21.02 30.0001 20.87 30.9701 21.8Z" fill="#EA5849"/>
<path d="M30.0599 20.52C30.0299 20.44 29.9799 20.35 29.9199 20.23C29.9699 20.36 30.0099 20.45 30.0599 20.52Z" fill="#EA5849"/>
<path d="M7.23022 13.54L7.55022 13.21L6.97021 13.59L7.23022 13.54Z" fill="#EA5849"/>
<path d="M5.70996 13.85L6.87996 13.28L5.75996 13.66C5.82996 13.67 5.96996 13.7 5.70996 13.85Z" fill="#EA5849"/>
<path d="M22.92 31.32L22.75 31.06C22.5 30.83 22.42 30.87 22.27 30.94L22.93 31.33L22.92 31.32Z" fill="#EA5849"/>
<path d="M18.8499 33.73L18.9199 33.7L18.3799 32.6L18.8499 33.73Z" fill="#EA5849"/>
<path d="M16.1098 37.6299C16.2498 37.6299 16.3698 37.2599 16.5098 37.2399C16.2398 37.6299 15.8598 35.9799 16.1098 37.6299Z" fill="#EA5849"/>
</g>
<defs>
<clipPath id="clip0_702_940">
<rect width="42.8" height="37.63" fill="white"/>
</clipPath>
</defs>
</svg>
