<svg width="110" height="110" viewBox="0 0 110 110" fill="none" xmlns="http://www.w3.org/2000/svg">
<g clip-path="url(#clip0_485_119)">
<path d="M62.72 37.04C62.72 37.04 60.32 47.75 76.62 50.39C76.62 50.39 83.61 51.73 84.85 54.94C84.85 54.94 87.64 57.53 86.56 62.5C86.56 62.5 84.54 70.57 88.89 74.14C88.89 74.14 92.61 78 98.26 80.81C102.79 73.24 105.4 64.39 105.4 54.93C105.4 43.73 101.74 33.38 95.56 25C93.76 25.97 91.3 26.67 87.95 26.62C77.55 26.46 64.34 27.86 62.72 37.02V37.04Z" fill="#6DBA4C"/>
<path d="M47.29 101.12C62.09 105.87 59.39 89.05 59.39 89.05C58.48 83.62 59.57 78.34 59.57 78.34C60.29 69.02 62.55 65.45 62.55 65.45C68.8 42.63 47.73 49.61 47.73 49.61C43.14 51.78 39.77 49.61 39.77 49.61C39.31 49.37 38.81 49.19 38.32 49.05C37.84 63.43 39.92 80.96 47.29 101.11V101.12Z" fill="#6DBA4C"/>
<path d="M54.65 4.68994C52.99 4.68994 51.34 4.76994 49.72 4.92994L49.59 5.20994C48.97 6.18994 46.32 10.5699 43.71 17.9799C44.21 17.9099 44.78 17.7999 45.42 17.6299C45.42 17.6299 53.94 14.2499 55.82 19.9099C55.82 19.9099 60.34 25.2499 66.57 19.9099C66.57 19.9099 74.23 15.3499 83.99 14.1099C75.72 8.18994 65.59 4.69994 54.64 4.69994L54.65 4.68994Z" fill="#6DBA4C"/>
<path d="M88.88 74.1499C84.53 70.5799 86.55 62.5099 86.55 62.5099C87.64 57.5399 84.84 54.9499 84.84 54.9499C83.6 51.7399 76.61 50.3999 76.61 50.3999C60.31 47.7599 62.71 37.0499 62.71 37.0499C64.33 27.8899 77.54 26.4899 87.94 26.6499C91.29 26.6999 93.74 25.9999 95.55 25.0299C92.4 20.7599 88.6 17.0099 84.28 13.9199C74.53 15.1699 66.86 19.7199 66.86 19.7199C60.63 25.0599 56.11 19.7199 56.11 19.7199C54.23 14.0599 45.71 17.4399 45.71 17.4399C45.06 17.6099 44.5 17.7199 44 17.7899C41.36 25.2699 38.75 35.8399 38.31 49.0699C38.81 49.2099 39.3 49.3899 39.76 49.6299C39.76 49.6299 43.14 51.7999 47.72 49.6299C47.72 49.6299 68.78 42.6399 62.54 65.4699C62.54 65.4699 60.28 69.0399 59.56 78.3599C59.56 78.3599 58.47 83.6399 59.38 89.0699C59.38 89.0699 62.08 105.89 47.28 101.14C47.75 102.43 48.24 103.73 48.75 105.04C50.78 105.29 52.84 105.42 54.94 105.42C73.34 105.42 89.44 95.5699 98.25 80.8499C92.6 78.0399 88.88 74.1799 88.88 74.1799V74.1499Z" fill="#96D5EE"/>
<path d="M54.95 105.4C82.8128 105.4 105.4 82.8128 105.4 54.95C105.4 27.0872 82.8128 4.5 54.95 4.5C27.0872 4.5 4.5 27.0872 4.5 54.95C4.5 82.8128 27.0872 105.4 54.95 105.4Z" stroke="#272828" stroke-width="9" stroke-miterlimit="10"/>
<path d="M32.73 25.81C34.8784 25.81 36.62 24.0684 36.62 21.92C36.62 19.7716 34.8784 18.03 32.73 18.03C30.5816 18.03 28.84 19.7716 28.84 21.92C28.84 24.0684 30.5816 25.81 32.73 25.81Z" fill="#272828"/>
<path d="M58.83 25.81C60.9784 25.81 62.72 24.0684 62.72 21.92C62.72 19.7716 60.9784 18.03 58.83 18.03C56.6816 18.03 54.94 19.7716 54.94 21.92C54.94 24.0684 56.6816 25.81 58.83 25.81Z" fill="#272828"/>
<path d="M30.7 33.4199C30.7 33.4199 38.28 47.4999 55.71 33.4199" stroke="#272828" stroke-width="7" stroke-miterlimit="10" stroke-linecap="round"/>
<path d="M49.72 4.92993C49.72 4.92993 23.9 46.9799 48.76 105.02" stroke="#272828" stroke-width="6" stroke-miterlimit="10"/>
</g>
<defs>
<clipPath id="clip0_485_119">
<rect width="109.89" height="109.89" fill="white"/>
</clipPath>
</defs>
</svg>
