<svg width="47" height="47" viewBox="0 0 47 47" fill="none" xmlns="http://www.w3.org/2000/svg">
<path d="M37.1365 38.8378C37.0088 39.3771 36.6907 39.8715 36.2207 40.2293C35.1824 41.0054 33.6975 40.8381 32.8662 39.8203C32.3965 39.2567 21.8215 26.8178 9.72395 36.2338C8.73708 37.0054 7.32015 36.9044 6.44674 35.9939C5.85764 35.3686 5.6572 34.5169 5.84127 33.7396C5.92766 33.3747 6.09714 33.0127 6.37015 32.7088C6.41691 32.6529 11.1128 27.1135 12.7281 20.2918C13.8475 15.5643 13.2139 11.3766 10.8562 7.81936C10.5665 7.41568 10.4174 7.1961 10.4174 7.1961C10.0346 6.61958 9.94686 5.92866 10.0934 5.30995C10.2286 4.73883 10.5701 4.21656 11.0915 3.85416C12.1894 3.1089 13.6715 3.35929 14.456 4.433C14.6088 4.63672 14.7457 4.83669 14.8827 5.03666C15.8283 6.34957 20.5349 12.4399 26.1659 13.0695C28.8073 13.3767 31.3384 12.4514 33.8657 10.2687C34.2798 9.86411 34.5461 9.65912 34.5461 9.65912C35.576 8.84749 37.0685 8.98308 37.9231 9.97287C38.4646 10.587 38.625 11.3956 38.4484 12.1412C38.3432 12.5854 38.1074 13.0154 37.7438 13.3482C37.5522 13.5206 37.3568 13.7089 37.1689 13.8655C36.1687 14.8349 33.8565 17.4539 32.9249 21.3883C31.7829 26.211 33.074 31.4424 36.7724 36.9086C37.1711 37.4889 37.2709 38.1994 37.1207 38.834L37.1365 38.8378Z" fill="#F6F3A0"/>
<path d="M12.473 5.87361C12.6137 6.05771 12.7348 6.25392 12.8755 6.43802C12.6258 6.07733 12.473 5.87361 12.473 5.87361ZM12.8755 6.43802C14.9317 9.28719 24.7444 21.4787 35.5173 12.0673C34.3451 13.197 31.6346 16.2243 30.5452 20.825C29.4559 25.4257 29.9546 31.173 34.7569 38.2745C34.7569 38.2745 22.4296 23.2593 8.21716 34.3191C8.21716 34.3191 13.3197 28.4069 15.104 20.8714C16.1783 16.3342 16.0511 11.2109 12.8755 6.43802ZM35.5173 12.0673C35.865 11.7308 36.0725 11.5621 36.0725 11.5621C35.8809 11.7345 35.7052 11.9107 35.5173 12.0673ZM7.73333 4.73459C7.43657 5.98787 7.63161 7.3576 8.37771 8.52274C8.37771 8.52274 8.53511 8.77781 8.85284 9.20487C10.8239 12.2014 11.3138 15.6514 10.3484 19.7286C8.87965 25.9315 4.56614 31.0588 4.51938 31.1148C3.98922 31.7264 3.63816 32.4307 3.46161 33.1763C3.08972 34.7469 3.51022 36.4381 4.67255 37.685C6.40351 39.5022 9.23361 39.72 11.2232 38.1806C21.2648 30.372 30.0165 40.2515 30.9839 41.402C32.6539 43.4058 35.608 43.7367 37.6882 42.1686C38.6283 41.453 39.2486 40.4606 39.5041 39.3818C39.8083 38.0968 39.5853 36.7037 38.7916 35.5273C35.492 30.6413 34.312 26.0729 35.2887 21.9482C36.0625 18.6801 37.9494 16.5133 38.8206 15.6641C39.0122 15.4917 39.2038 15.3192 39.3992 15.1309C40.1301 14.4496 40.5981 13.6054 40.8122 12.7011C41.1653 11.2099 40.8129 9.58509 39.7457 8.36068C38.0206 6.37734 35.0356 6.10615 32.9842 7.7649C32.8786 7.85717 32.5889 8.09014 32.1982 8.46672C30.2382 10.1639 28.345 10.8716 26.4204 10.6505C22.8326 10.2365 19.0429 6.64183 16.8702 3.6478C16.7211 3.42821 16.5842 3.22825 16.4351 3.00866C14.882 0.865001 11.902 0.360437 9.72579 1.83885C8.68672 2.54778 8.00003 3.60821 7.72957 4.75045L7.73333 4.73459Z" fill="#040000"/>
</svg>
