<svg width="150" height="150" viewBox="0 0 150 150" fill="none" xmlns="http://www.w3.org/2000/svg">
<g clip-path="url(#clip0_589_671)">
<path d="M75 150C116.421 150 150 116.421 150 75C150 33.5786 116.421 0 75 0C33.5786 0 0 33.5786 0 75C0 116.421 33.5786 150 75 150Z" fill="#DEECC6"/>
<path d="M120 33.08C120 33.08 109.74 19.01 71.25 36.02C71.25 36.02 47.95 44.94 35.14 74.25C35.14 74.25 31.24 83.9 35.09 102.94C35.09 102.94 40.04 115.09 51.79 120.43C51.79 120.43 65.76 126.93 87.75 116.24C87.75 116.24 116.05 97.31 123.03 66.97C123.03 66.97 130.37 45.99 119.99 33.08H120Z" fill="#9ACA5D"/>
<path d="M79.48 68.6101C79.48 68.6101 49.62 90.9601 49.4 127.8" stroke="#578145" stroke-width="10" stroke-linecap="round" stroke-linejoin="round"/>
</g>
<defs>
<clipPath id="clip0_589_671">
<rect width="150" height="150" fill="white"/>
</clipPath>
</defs>
</svg>
