<svg width="150" height="150" viewBox="0 0 150 150" fill="none" xmlns="http://www.w3.org/2000/svg">
<g clip-path="url(#clip0_589_661)">
<path d="M75 150C116.421 150 150 116.421 150 75C150 33.5786 116.421 0 75 0C33.5786 0 0 33.5786 0 75C0 116.421 33.5786 150 75 150Z" fill="#D2ECF9"/>
<path d="M78.29 113.35C48.67 111.24 45.6 89.55 45.6 89.55C38.84 73.41 69.69 25.32 78.57 12.01H76.53C76.53 12.01 70.69 15.08 65.44 22.37L31 68.43C31 68.43 8.23998 95.11 35.09 110.66C35.09 110.66 44.14 117.19 73.03 119.68C73.03 119.68 94.8 120.91 111.77 114.05C92.97 114.66 78.28 113.34 78.28 113.34L78.29 113.35Z" fill="#9ACA5D"/>
<path d="M45.61 89.55C45.61 89.55 48.68 111.24 78.3 113.35C78.3 113.35 92.99 114.67 111.79 114.06C114.96 112.78 117.96 111.22 120.62 109.32C120.62 109.32 140.76 99.72 125.29 70.36L88.23 20.65C88.23 20.65 85.02 12.59 79.47 12.01H78.59C69.7 25.33 38.85 73.41 45.62 89.55H45.61Z" fill="#9ACA5D"/>
<path d="M75.49 101.78V132.81" stroke="#6F5E28" stroke-width="12" stroke-linecap="round" stroke-linejoin="round"/>
</g>
<defs>
<clipPath id="clip0_589_661">
<rect width="150" height="150" fill="white"/>
</clipPath>
</defs>
</svg>
