<svg width="150" height="150" viewBox="0 0 150 150" fill="none" xmlns="http://www.w3.org/2000/svg">
<g clip-path="url(#clip0_589_666)">
<path d="M129.05 31.57C122.22 11.43 99.1701 29.37 99.1701 29.37C82.7301 43.27 66.1901 36.89 66.1901 36.89C58.0101 34.04 53.8501 17.7 51.7601 3.70996C42.6701 6.66996 34.5301 11.21 27.5301 16.93C40.6301 21.9 52.0501 32.13 42.2201 53.23C42.2201 53.23 22.8101 77.3 33.4101 92.25C33.4101 92.25 50.5701 107.7 41.7901 117.49C41.7901 117.49 34.9101 125.35 26.6101 132.27C45.3801 148.1 71.5501 154.4 96.8001 146.73C101.01 145.45 105.03 143.83 108.83 141.92C103.44 143.93 95.3101 145.51 89.2601 140.25C89.2601 140.25 79.7401 129.61 68.8001 126.31C68.8001 126.31 52.3101 121.65 51.6201 103.45C51.6201 103.45 50.9301 94.34 69.6301 92.66C69.6301 92.66 83.4001 93.88 90.7601 83.47C90.7601 83.47 97.3001 71.7 98.5101 62.12C98.5101 62.12 100.35 51.22 117.32 59.01C117.32 59.01 139.55 70.9 149.64 82.53C150.61 72.94 149.74 63.01 146.77 53.21C130.52 46.71 129.07 31.56 129.07 31.56L129.05 31.57Z" fill="#D2ECF9"/>
<path d="M98.48 62.1299C97.28 71.7099 90.73 83.4799 90.73 83.4799C83.37 93.8899 69.6 92.6699 69.6 92.6699C50.91 94.3499 51.59 103.46 51.59 103.46C52.28 121.66 68.77 126.32 68.77 126.32C79.72 129.62 89.23 140.26 89.23 140.26C95.29 145.52 103.41 143.94 108.8 141.93C131.91 130.28 147.06 107.6 149.6 82.5399C139.5 70.9099 117.28 59.0199 117.28 59.0199C100.31 51.2299 98.47 62.1299 98.47 62.1299H98.48Z" fill="#9ACA5D"/>
<path d="M33.4001 92.2499C22.8001 77.2999 42.2101 53.2299 42.2101 53.2299C52.0401 32.1399 40.6201 21.8999 27.5201 16.9299C4.72011 35.6099 -5.83989 66.8399 3.26011 96.7899C7.63011 111.17 15.9201 123.27 26.6101 132.28C34.9101 125.36 41.7901 117.5 41.7901 117.5C50.5701 107.71 33.4101 92.2599 33.4101 92.2599L33.4001 92.2499Z" fill="#9ACA5D"/>
<path d="M53.21 3.2599C52.72 3.4099 52.24 3.5599 51.76 3.7199C53.85 17.7099 58.01 34.0499 66.19 36.8999C66.19 36.8999 82.73 43.2799 99.17 29.3799C99.17 29.3799 122.22 11.4399 129.05 31.5799C129.05 31.5799 130.5 46.7199 146.75 53.2299C134.71 13.5899 92.83 -8.7801 53.21 3.2599Z" fill="#9ACA5D"/>
</g>
<defs>
<clipPath id="clip0_589_666">
<rect width="150" height="150" fill="white"/>
</clipPath>
</defs>
</svg>
